<?xml version="1.0" standalone="no"?>
<!DOCTYPE svg PUBLIC "-//W3C//DTD SVG 20010904//EN"
 "http://www.w3.org/TR/2001/REC-SVG-20010904/DTD/svg10.dtd">
<svg version="1.0" xmlns="http://www.w3.org/2000/svg"
 width="640.000000pt" height="640.000000pt" viewBox="0 0 640.000000 640.000000"
 preserveAspectRatio="xMidYMid meet">
<metadata>
Created by potrace 1.11, written by Peter Selinger 2001-2013
</metadata>
<g transform="translate(0.000000,640.000000) scale(0.100000,-0.100000)"
fill="#000000" stroke="none">
<path d="M699 6396 c-2 -2 -22 -7 -44 -10 -22 -4 -56 -11 -75 -17 -275 -82
-482 -296 -556 -574 -18 -68 -19 -158 -19 -2595 0 -2426 1 -2528 19 -2595 65
-249 247 -456 480 -546 162 -63 -5 -59 2699 -59 2645 1 2528 -1 2672 49 195
69 395 262 465 449 60 159 55 -71 57 2677 2 2700 5 2554 -47 2702 -74 211
-277 410 -488 478 -143 46 -21 44 -2663 45 -1373 0 -2498 -2 -2500 -4z m4559
-651 c35 -8 102 -33 150 -56 118 -57 224 -163 281 -281 77 -160 71 25 70
-2203 0 -1666 -3 -2011 -14 -2065 -38 -176 -176 -351 -339 -430 -156 -75 4
-71 -2234 -67 -1104 1 -2016 5 -2027 9 -162 52 -224 87 -317 180 -60 60 -86
96 -117 160 -76 157 -71 -14 -71 2208 0 1982 1 1996 21 2075 31 120 81 208
169 295 97 96 204 154 333 180 23 4 940 8 2037 8 1654 0 2006 -2 2058 -13z"/>
<path d="M1270 2560 l0 -320 70 0 70 0 1 33 c0 17 1 129 1 248 l1 216 88 1 89
1 0 -250 0 -250 72 3 73 3 0 245 0 245 50 2 c71 3 104 -6 116 -30 8 -13 12
-98 12 -244 l0 -223 72 0 71 0 -1 243 c-1 261 -7 296 -53 340 -56 54 -73 56
-415 57 l-317 1 0 -321z"/>
<path d="M2129 2873 c-1 -9 -1 -602 0 -620 1 -9 22 -13 71 -13 l70 0 0 320 0
320 -70 0 c-38 0 -70 -3 -71 -7z"/>
<path d="M2340 2560 l0 -321 72 3 73 3 1 235 c1 129 2 240 3 246 1 9 56 12
192 11 173 0 194 -2 210 -18 11 -11 19 -31 20 -46 0 -16 1 -118 2 -228 l2
-200 71 -3 71 -3 -2 248 c-2 259 -7 287 -48 331 -53 58 -69 60 -380 62 l-286
1 -1 -321z"/>
<path d="M3129 2863 c-1 -24 -1 -594 0 -610 1 -9 22 -13 71 -13 l70 0 0 320 0
320 -70 0 c-60 0 -70 -3 -71 -17z"/>
<path d="M1270 1610 l0 -320 70 0 70 0 0 33 c1 17 1 74 1 125 l0 93 199 -3
c146 -2 202 -6 212 -16 12 -12 16 -63 18 -194 l0 -38 70 0 70 0 0 118 c-1 72
-6 132 -15 155 -11 33 -11 44 1 73 28 68 9 206 -34 241 -9 8 -35 23 -57 33
-36 17 -67 19 -322 20 l-283 1 0 -321z m568 128 l-3 -53 -212 -1 -213 -2 0 48
c0 25 3 49 6 52 3 3 100 6 215 7 l210 2 -3 -53z"/>
<path d="M2053 1678 c2 -226 4 -257 21 -288 50 -93 91 -102 430 -98 l260 3 0
68 1 67 -250 1 c-137 0 -259 2 -269 4 -30 6 -46 28 -50 68 l-4 37 280 0 c154
-1 283 2 286 5 3 3 6 35 6 70 l1 65 -55 1 c-30 0 -159 0 -285 0 l-231 0 1 52
1 52 278 2 c153 1 281 4 284 7 4 5 7 76 3 119 -1 16 -25 17 -356 17 l-354 0 2
-252z"/>
<path d="M2961 1918 c-82 -23 -117 -72 -125 -173 -3 -49 16 -120 41 -147 44
-49 65 -53 303 -58 l225 -5 -2 -45 c-1 -25 -2 -48 -2 -52 -1 -5 -129 -8 -284
-8 l-284 0 0 -70 1 -71 277 1 c304 1 334 6 384 56 76 76 64 241 -22 298 -52
34 -70 36 -295 37 -178 0 -198 2 -199 17 -2 18 -1 71 0 84 1 4 110 7 244 7
133 0 260 0 282 0 l41 1 0 70 1 70 -276 -1 c-152 0 -291 -5 -310 -11z"/>
<path d="M3618 1918 c-7 -22 -2 -430 6 -481 9 -60 62 -120 121 -136 25 -7 144
-11 311 -11 l272 0 0 70 0 70 -251 1 c-139 0 -261 2 -272 4 -27 5 -45 33 -45
72 l0 33 284 0 283 0 2 70 2 70 -28 1 c-15 0 -145 0 -288 0 l-260 1 3 54 4 54
282 0 282 0 2 70 2 70 -354 0 c-274 0 -355 -3 -358 -12z"/>
<path d="M4399 1926 c-2 -2 -2 -34 -1 -70 l4 -66 139 0 c104 0 139 -3 140 -12
0 -7 2 -119 2 -248 l2 -235 70 -3 71 -3 -1 238 c-1 131 1 244 3 251 3 8 19 13
41 12 20 -1 82 -2 139 -1 l102 1 0 70 0 70 -353 0 c-195 0 -356 -2 -358 -4z"/>
</g>
</svg>
